<svg id="svg" version="1.1" xmlns="http://www.w3.org/2000/svg" xmlns:xlink="http://www.w3.org/1999/xlink" width="400" height="400" viewBox="0, 0, 400,400"><g id="svgg"><path id="path0" d="M251.000 92.591 C 244.673 93.899,239.979 97.002,236.442 102.214 C 235.319 103.869,234.400 105.300,234.400 105.393 C 234.400 105.487,233.298 107.416,231.951 109.681 C 228.136 116.096,224.647 122.018,223.455 124.100 C 222.303 126.110,221.898 126.267,219.597 125.587 C 204.450 121.114,182.786 124.284,167.077 133.271 C 165.139 134.380,163.480 135.222,163.391 135.143 C 163.301 135.065,158.947 130.754,153.714 125.564 C 143.467 115.400,141.949 114.314,134.400 111.748 C 131.789 110.860,80.500 110.370,76.646 111.196 C 70.726 112.465,64.059 117.678,61.668 122.910 C 59.451 127.761,59.400 127.991,59.400 133.200 C 59.400 138.409,59.451 138.639,61.668 143.490 C 63.326 147.117,67.772 151.503,71.642 153.331 C 76.703 155.721,76.384 155.693,98.491 155.629 C 115.876 155.578,118.949 155.656,119.948 156.173 C 121.915 157.190,134.607 170.697,134.555 171.716 C 134.530 172.202,133.938 174.731,133.240 177.336 C 123.594 213.322,143.477 251.825,178.000 264.012 C 179.430 264.516,180.747 265.056,180.926 265.211 C 181.272 265.509,179.726 271.454,179.082 272.300 C 178.789 272.685,175.019 272.800,162.635 272.800 C 142.353 272.800,139.751 273.402,133.742 279.482 C 121.202 292.169,127.983 314.080,145.486 317.429 C 149.989 318.291,199.466 318.264,203.674 317.398 C 211.306 315.826,217.552 310.429,221.493 302.000 C 222.748 299.315,224.800 293.274,224.800 292.264 C 224.800 291.948,225.256 290.185,225.813 288.345 C 226.727 285.325,227.667 282.041,229.464 275.600 C 229.801 274.390,230.226 272.770,230.408 272.000 C 232.840 261.703,232.416 262.443,237.400 259.809 C 275.039 239.918,286.941 191.455,263.031 155.436 C 259.880 150.689,259.884 151.873,263.002 146.638 C 264.431 144.238,265.600 142.217,265.600 142.145 C 265.600 142.074,266.236 141.022,267.012 139.808 L 268.425 137.600 289.339 137.600 C 311.021 137.600,313.197 137.466,317.200 135.889 C 338.657 127.433,334.906 96.095,312.000 92.442 C 308.077 91.816,254.111 91.948,251.000 92.591 M209.506 167.380 C 235.223 172.790,241.826 206.322,220.000 220.672 C 210.812 226.713,197.356 226.765,188.193 220.796 C 172.560 210.610,170.115 188.621,183.166 175.570 C 190.168 168.568,200.251 165.433,209.506 167.380 " stroke="none" fill="#fbfbfc" fill-rule="evenodd"></path><path id="path1" d="M244.000 53.200 C 244.000 53.420,243.190 53.600,242.200 53.600 C 241.210 53.600,240.400 53.780,240.400 54.000 C 240.400 54.220,239.680 54.400,238.800 54.400 C 237.920 54.400,237.200 54.580,237.200 54.800 C 237.200 55.020,236.480 55.200,235.600 55.200 C 234.720 55.200,234.000 55.380,234.000 55.600 C 234.000 55.820,233.651 56.000,233.224 56.000 C 232.797 56.000,232.336 56.180,232.200 56.400 C 232.064 56.620,231.513 56.800,230.976 56.800 C 230.439 56.800,230.000 56.980,230.000 57.200 C 230.000 57.420,229.640 57.600,229.200 57.600 C 228.760 57.600,228.400 57.760,228.400 57.955 C 228.400 58.151,227.770 58.429,227.000 58.574 C 226.230 58.718,225.600 59.008,225.600 59.218 C 225.600 59.428,225.240 59.600,224.800 59.600 C 224.360 59.600,224.000 59.750,224.000 59.932 C 224.000 60.115,223.505 60.520,222.900 60.832 C 222.295 61.145,221.451 61.715,221.025 62.100 C 220.598 62.485,220.013 62.800,219.725 62.800 C 219.436 62.800,219.200 62.950,219.200 63.132 C 219.200 63.315,218.705 63.719,218.100 64.030 C 217.495 64.340,216.709 64.911,216.353 65.297 C 215.997 65.684,215.495 66.000,215.236 66.000 C 214.649 66.000,206.800 74.025,206.800 74.625 C 206.800 74.765,206.260 75.383,205.600 76.000 C 204.940 76.617,204.400 77.369,204.400 77.672 C 204.400 77.975,204.040 78.483,203.600 78.800 C 203.160 79.117,202.800 79.657,202.800 80.000 C 202.800 80.343,202.440 80.883,202.000 81.200 C 201.560 81.517,201.200 82.031,201.200 82.341 C 201.200 83.963,199.842 84.304,192.182 84.606 C 188.114 84.767,184.689 85.056,184.570 85.249 C 184.450 85.442,183.373 85.600,182.176 85.600 C 180.979 85.600,180.000 85.780,180.000 86.000 C 180.000 86.220,179.280 86.400,178.400 86.400 C 177.520 86.400,176.800 86.580,176.800 86.800 C 176.800 87.020,176.170 87.200,175.400 87.200 C 174.630 87.200,174.000 87.380,174.000 87.600 C 174.000 88.551,172.606 87.854,170.800 86.000 C 169.729 84.900,168.610 84.000,168.314 84.000 C 168.019 84.000,167.517 83.640,167.200 83.200 C 166.883 82.760,166.343 82.400,166.000 82.400 C 165.657 82.400,165.117 82.040,164.800 81.600 C 164.483 81.160,163.903 80.800,163.512 80.800 C 163.120 80.800,162.800 80.620,162.800 80.400 C 162.800 80.180,162.440 80.000,162.000 80.000 C 161.560 80.000,161.200 79.820,161.200 79.600 C 161.200 79.380,160.855 79.200,160.433 79.200 C 160.012 79.200,159.607 79.059,159.533 78.886 C 159.314 78.371,153.547 75.680,151.500 75.137 C 150.455 74.861,149.600 74.491,149.600 74.317 C 149.600 74.143,148.880 74.000,148.000 74.000 C 147.120 74.000,146.400 73.820,146.400 73.600 C 146.400 73.380,145.680 73.200,144.800 73.200 C 143.920 73.200,143.200 73.020,143.200 72.800 C 143.200 72.580,142.570 72.400,141.800 72.400 C 141.030 72.400,140.400 72.220,140.400 72.000 C 140.400 71.736,128.133 71.600,104.400 71.600 C 80.667 71.600,68.400 71.736,68.400 72.000 C 68.400 72.220,67.680 72.400,66.800 72.400 C 65.920 72.400,65.200 72.580,65.200 72.800 C 65.200 73.020,64.480 73.200,63.600 73.200 C 62.720 73.200,62.000 73.380,62.000 73.600 C 62.000 73.820,61.460 74.000,60.800 74.000 C 60.140 74.000,59.600 74.166,59.600 74.368 C 59.600 74.571,59.062 74.855,58.405 74.999 C 57.747 75.143,57.106 75.428,56.981 75.631 C 56.855 75.834,56.403 76.000,55.976 76.000 C 55.549 76.000,55.200 76.180,55.200 76.400 C 55.200 76.620,54.840 76.800,54.400 76.800 C 53.960 76.800,53.600 76.980,53.600 77.200 C 53.600 77.420,53.240 77.600,52.800 77.600 C 52.360 77.600,52.000 77.780,52.000 78.000 C 52.000 78.220,51.640 78.400,51.200 78.400 C 50.760 78.400,50.400 78.580,50.400 78.800 C 50.400 79.020,50.040 79.200,49.600 79.200 C 49.160 79.200,48.800 79.380,48.800 79.600 C 48.800 79.820,48.480 80.000,48.088 80.000 C 47.697 80.000,47.117 80.360,46.800 80.800 C 46.483 81.240,45.943 81.600,45.600 81.600 C 45.257 81.600,44.717 81.960,44.400 82.400 C 44.083 82.840,43.503 83.200,43.112 83.200 C 42.720 83.200,42.400 83.362,42.400 83.560 C 42.400 83.977,35.726 90.739,33.280 92.800 C 32.366 93.570,31.614 94.475,31.609 94.812 C 31.604 95.148,31.240 95.683,30.800 96.000 C 30.360 96.317,30.000 96.857,30.000 97.200 C 30.000 97.543,29.640 98.083,29.200 98.400 C 28.760 98.717,28.400 99.297,28.400 99.688 C 28.400 100.080,28.220 100.400,28.000 100.400 C 27.780 100.400,27.600 100.760,27.600 101.200 C 27.600 101.640,27.420 102.000,27.200 102.000 C 26.980 102.000,26.800 102.360,26.800 102.800 C 26.800 103.240,26.620 103.600,26.400 103.600 C 26.180 103.600,26.000 103.849,26.000 104.154 C 26.000 104.459,25.731 105.224,25.402 105.854 C 25.074 106.484,24.804 107.315,24.802 107.700 C 24.801 108.085,24.620 108.400,24.400 108.400 C 24.180 108.400,24.000 108.670,24.000 109.000 C 24.000 109.330,23.820 109.600,23.600 109.600 C 23.380 109.600,23.200 109.960,23.200 110.400 C 23.200 110.840,23.020 111.200,22.800 111.200 C 22.580 111.200,22.400 111.920,22.400 112.800 C 22.400 113.680,22.220 114.400,22.000 114.400 C 21.780 114.400,21.600 115.120,21.600 116.000 C 21.600 116.880,21.420 117.600,21.200 117.600 C 20.980 117.600,20.800 118.320,20.800 119.200 C 20.800 120.080,20.620 120.800,20.400 120.800 C 20.142 120.800,20.000 125.200,20.000 133.200 C 20.000 141.200,20.142 145.600,20.400 145.600 C 20.620 145.600,20.800 146.320,20.800 147.200 C 20.800 148.080,20.980 148.800,21.200 148.800 C 21.420 148.800,21.600 149.520,21.600 150.400 C 21.600 151.280,21.780 152.000,22.000 152.000 C 22.220 152.000,22.400 152.720,22.400 153.600 C 22.400 154.480,22.580 155.200,22.800 155.200 C 23.020 155.200,23.200 155.560,23.200 156.000 C 23.200 156.440,23.380 156.800,23.600 156.800 C 23.820 156.800,24.000 157.160,24.000 157.600 C 24.000 158.040,24.166 158.400,24.368 158.400 C 24.571 158.400,24.855 158.938,24.999 159.595 C 25.143 160.253,25.428 160.894,25.631 161.019 C 25.834 161.145,26.000 161.597,26.000 162.024 C 26.000 162.451,26.180 162.800,26.400 162.800 C 26.620 162.800,26.800 163.160,26.800 163.600 C 26.800 164.040,26.980 164.400,27.200 164.400 C 27.420 164.400,27.600 164.760,27.600 165.200 C 27.600 165.640,27.780 166.000,28.000 166.000 C 28.220 166.000,28.400 166.320,28.400 166.712 C 28.400 167.103,28.760 167.683,29.200 168.000 C 29.640 168.317,30.000 168.857,30.000 169.200 C 30.000 169.543,30.360 170.083,30.800 170.400 C 31.240 170.717,31.608 171.252,31.618 171.588 C 31.629 171.925,32.363 172.830,33.251 173.600 C 34.138 174.370,36.712 176.845,38.969 179.100 C 41.226 181.355,43.242 183.200,43.448 183.200 C 43.655 183.200,44.083 183.560,44.400 184.000 C 44.717 184.440,45.257 184.800,45.600 184.800 C 45.943 184.800,46.483 185.160,46.800 185.600 C 47.117 186.040,47.697 186.400,48.088 186.400 C 48.480 186.400,48.800 186.580,48.800 186.800 C 48.800 187.020,49.160 187.200,49.600 187.200 C 50.040 187.200,50.400 187.380,50.400 187.600 C 50.400 187.820,50.760 188.000,51.200 188.000 C 51.640 188.000,52.000 188.180,52.000 188.400 C 52.000 188.620,52.360 188.800,52.800 188.800 C 53.240 188.800,53.600 188.980,53.600 189.200 C 53.600 189.420,53.960 189.600,54.400 189.600 C 54.840 189.600,55.200 189.780,55.200 190.000 C 55.200 190.220,55.560 190.400,56.000 190.400 C 56.440 190.400,56.800 190.560,56.800 190.755 C 56.800 190.951,57.430 191.229,58.200 191.374 C 58.970 191.518,59.600 191.808,59.600 192.018 C 59.600 192.228,60.140 192.400,60.800 192.400 C 61.460 192.400,62.000 192.580,62.000 192.800 C 62.000 193.020,62.720 193.200,63.600 193.200 C 64.480 193.200,65.200 193.380,65.200 193.600 C 65.200 193.820,65.920 194.000,66.800 194.000 C 67.680 194.000,68.400 194.180,68.400 194.400 C 68.400 194.657,72.529 194.800,79.986 194.800 L 91.572 194.800 91.758 204.300 C 91.962 214.798,92.280 219.200,92.834 219.200 C 93.035 219.200,93.200 219.819,93.200 220.576 C 93.200 221.333,93.380 222.064,93.600 222.200 C 93.820 222.336,94.000 223.067,94.000 223.824 C 94.000 224.581,94.180 225.200,94.400 225.200 C 94.620 225.200,94.800 225.920,94.800 226.800 C 94.800 227.680,94.980 228.400,95.200 228.400 C 95.420 228.400,95.600 229.120,95.600 230.000 C 95.600 230.880,95.780 231.600,96.000 231.600 C 96.220 231.600,96.400 232.140,96.400 232.800 C 96.400 233.460,96.580 234.000,96.800 234.000 C 97.020 234.000,97.200 234.540,97.200 235.200 C 97.200 235.860,97.380 236.400,97.600 236.400 C 97.820 236.400,98.000 236.760,98.000 237.200 C 98.000 237.640,98.180 238.000,98.400 238.000 C 98.620 238.000,98.800 238.360,98.800 238.800 C 98.800 239.240,98.980 239.600,99.200 239.600 C 99.420 239.600,99.600 240.050,99.600 240.600 C 99.600 241.150,99.780 241.600,100.000 241.600 C 100.220 241.600,100.400 241.960,100.400 242.400 C 100.400 242.840,100.580 243.200,100.800 243.200 C 101.020 243.200,101.200 243.560,101.200 244.000 C 101.200 244.440,101.380 244.800,101.600 244.800 C 101.820 244.800,102.000 245.160,102.000 245.600 C 102.000 246.040,102.180 246.400,102.400 246.400 C 102.620 246.400,102.800 246.760,102.800 247.200 C 102.800 247.640,102.980 248.000,103.200 248.000 C 103.420 248.000,103.600 248.360,103.600 248.800 C 103.600 249.240,103.780 249.600,104.000 249.600 C 105.031 249.600,104.317 251.743,102.800 253.200 C 101.920 254.046,101.200 254.949,101.200 255.208 C 101.200 255.467,100.660 256.183,100.000 256.800 C 99.340 257.417,98.800 258.119,98.800 258.360 C 98.800 258.602,98.650 258.800,98.468 258.800 C 98.285 258.800,97.881 259.295,97.570 259.900 C 97.260 260.505,96.689 261.291,96.303 261.647 C 95.916 262.003,95.600 262.588,95.600 262.947 C 95.600 263.306,95.420 263.600,95.200 263.600 C 94.980 263.600,94.800 263.960,94.800 264.400 C 94.800 264.840,94.620 265.200,94.400 265.200 C 94.180 265.200,94.000 265.560,94.000 266.000 C 94.000 266.440,93.820 266.800,93.600 266.800 C 93.380 266.800,93.200 267.160,93.200 267.600 C 93.200 268.040,93.020 268.400,92.800 268.400 C 92.580 268.400,92.400 268.649,92.400 268.954 C 92.400 269.259,92.131 270.024,91.802 270.654 C 91.474 271.284,91.204 272.295,91.202 272.900 C 91.201 273.505,91.020 274.000,90.800 274.000 C 90.580 274.000,90.400 274.630,90.400 275.400 C 90.400 276.170,90.220 276.800,90.000 276.800 C 89.780 276.800,89.600 277.520,89.600 278.400 C 89.600 279.280,89.420 280.000,89.200 280.000 C 88.980 280.000,88.800 280.720,88.800 281.600 C 88.800 282.480,88.620 283.200,88.400 283.200 C 88.142 283.200,88.000 287.533,88.000 295.400 C 88.000 303.267,88.142 307.600,88.400 307.600 C 88.620 307.600,88.800 308.230,88.800 309.000 C 88.800 309.770,88.980 310.400,89.200 310.400 C 89.420 310.400,89.600 311.120,89.600 312.000 C 89.600 312.880,89.780 313.600,90.000 313.600 C 90.220 313.600,90.400 314.320,90.400 315.200 C 90.400 316.080,90.580 316.800,90.800 316.800 C 91.020 316.800,91.200 317.252,91.200 317.805 C 91.200 318.842,93.909 324.896,94.479 325.133 C 94.656 325.207,94.800 325.612,94.800 326.033 C 94.800 326.455,94.980 326.800,95.200 326.800 C 95.420 326.800,95.600 327.120,95.600 327.512 C 95.600 327.903,95.960 328.483,96.400 328.800 C 96.840 329.117,97.200 329.657,97.200 330.000 C 97.200 330.343,97.560 330.883,98.000 331.200 C 98.440 331.517,98.800 332.025,98.800 332.328 C 98.800 332.631,99.340 333.383,100.000 334.000 C 100.660 334.617,101.200 335.333,101.200 335.592 C 101.200 335.851,101.898 336.724,102.751 337.531 C 105.685 340.310,108.022 342.400,108.195 342.400 C 108.291 342.400,109.082 343.120,109.953 344.000 C 110.824 344.880,111.782 345.600,112.080 345.600 C 112.379 345.600,112.883 345.960,113.200 346.400 C 113.517 346.840,114.057 347.200,114.400 347.200 C 114.743 347.200,115.283 347.560,115.600 348.000 C 115.917 348.440,116.457 348.800,116.800 348.800 C 117.143 348.800,117.683 349.160,118.000 349.600 C 118.317 350.040,118.897 350.400,119.288 350.400 C 119.680 350.400,120.000 350.580,120.000 350.800 C 120.000 351.020,120.360 351.200,120.800 351.200 C 121.240 351.200,121.600 351.380,121.600 351.600 C 121.600 351.820,121.960 352.000,122.400 352.000 C 122.840 352.000,123.200 352.180,123.200 352.400 C 123.200 352.620,123.560 352.800,124.000 352.800 C 124.440 352.800,124.800 352.980,124.800 353.200 C 124.800 353.420,125.250 353.600,125.800 353.600 C 126.350 353.600,126.800 353.780,126.800 354.000 C 126.800 354.220,127.160 354.400,127.600 354.400 C 128.040 354.400,128.400 354.580,128.400 354.800 C 128.400 355.020,129.120 355.200,130.000 355.200 C 130.880 355.200,131.600 355.380,131.600 355.600 C 131.600 355.820,132.320 356.000,133.200 356.000 C 134.080 356.000,134.800 356.180,134.800 356.400 C 134.800 356.622,135.867 356.800,137.200 356.800 C 138.533 356.800,139.600 356.978,139.600 357.200 C 139.600 357.464,151.533 357.600,174.600 357.600 C 197.667 357.600,209.600 357.464,209.600 357.200 C 209.600 356.980,210.500 356.800,211.600 356.800 C 212.700 356.800,213.600 356.620,213.600 356.400 C 213.600 356.180,214.320 356.000,215.200 356.000 C 216.080 356.000,216.800 355.820,216.800 355.600 C 216.800 355.380,217.520 355.200,218.400 355.200 C 219.280 355.200,220.000 355.020,220.000 354.800 C 220.000 354.580,220.540 354.400,221.200 354.400 C 221.860 354.400,222.400 354.220,222.400 354.000 C 222.400 353.780,222.760 353.600,223.200 353.600 C 223.640 353.600,224.000 353.420,224.000 353.200 C 224.000 352.980,224.270 352.800,224.600 352.800 C 224.930 352.800,225.200 352.620,225.200 352.400 C 225.200 352.180,225.560 352.000,226.000 352.000 C 226.440 352.000,226.800 351.820,226.800 351.600 C 226.800 351.380,227.160 351.200,227.600 351.200 C 228.040 351.200,228.400 351.020,228.400 350.800 C 228.400 350.580,228.760 350.400,229.200 350.400 C 229.640 350.400,230.000 350.220,230.000 350.000 C 230.000 349.780,230.360 349.600,230.800 349.600 C 231.240 349.600,231.600 349.420,231.600 349.200 C 231.600 348.980,231.920 348.800,232.312 348.800 C 232.703 348.800,233.283 348.440,233.600 348.000 C 233.917 347.560,234.457 347.200,234.800 347.200 C 235.143 347.200,235.683 346.840,236.000 346.400 C 236.317 345.960,236.805 345.600,237.085 345.600 C 237.753 345.600,249.600 333.759,249.600 333.091 C 249.600 332.808,249.960 332.317,250.400 332.000 C 250.840 331.683,251.200 331.143,251.200 330.800 C 251.200 330.457,251.560 329.917,252.000 329.600 C 252.440 329.283,252.800 328.743,252.800 328.400 C 252.800 328.057,253.160 327.517,253.600 327.200 C 254.040 326.883,254.400 326.303,254.400 325.912 C 254.400 325.520,254.580 325.200,254.800 325.200 C 255.020 325.200,255.200 324.930,255.200 324.600 C 255.200 324.270,255.380 324.000,255.600 324.000 C 255.820 324.000,256.000 323.640,256.000 323.200 C 256.000 322.760,256.180 322.400,256.400 322.400 C 256.620 322.400,256.800 322.040,256.800 321.600 C 256.800 321.160,256.980 320.800,257.200 320.800 C 257.420 320.800,257.600 320.440,257.600 320.000 C 257.600 319.560,257.764 319.200,257.965 319.200 C 258.166 319.200,258.451 318.480,258.600 317.600 C 258.749 316.720,259.034 316.000,259.235 316.000 C 259.436 316.000,259.600 315.640,259.600 315.200 C 259.600 314.760,259.780 314.400,260.000 314.400 C 260.220 314.400,260.400 313.860,260.400 313.200 C 260.400 312.540,260.580 312.000,260.800 312.000 C 261.020 312.000,261.200 311.460,261.200 310.800 C 261.200 310.140,261.380 309.600,261.600 309.600 C 261.820 309.600,262.000 308.970,262.000 308.200 C 262.000 307.430,262.180 306.800,262.400 306.800 C 262.620 306.800,262.800 306.260,262.800 305.600 C 262.800 304.940,262.980 304.400,263.200 304.400 C 263.420 304.400,263.600 303.680,263.600 302.800 C 263.600 301.920,263.780 301.200,264.000 301.200 C 264.220 301.200,264.400 300.660,264.400 300.000 C 264.400 299.340,264.580 298.800,264.800 298.800 C 265.020 298.800,265.200 298.080,265.200 297.200 C 265.200 296.320,265.380 295.600,265.600 295.600 C 265.820 295.600,266.000 294.880,266.000 294.000 C 266.000 293.120,266.180 292.400,266.400 292.400 C 266.620 292.400,266.800 291.950,266.800 291.400 C 266.800 290.850,266.980 290.400,267.200 290.400 C 267.420 290.400,267.600 289.860,267.600 289.200 C 267.600 288.316,267.788 288.000,268.312 288.000 C 268.703 288.000,269.283 287.640,269.600 287.200 C 269.917 286.760,270.425 286.400,270.728 286.400 C 271.031 286.400,271.783 285.860,272.400 285.200 C 273.017 284.540,273.644 284.000,273.794 284.000 C 273.945 284.000,276.121 281.975,278.631 279.500 C 281.141 277.025,284.996 273.235,287.197 271.077 C 289.399 268.920,291.200 266.903,291.200 266.596 C 291.200 266.288,291.650 265.586,292.200 265.036 C 292.750 264.486,293.200 263.798,293.200 263.506 C 293.200 263.215,293.560 262.717,294.000 262.400 C 294.440 262.083,294.800 261.543,294.800 261.200 C 294.800 260.857,295.160 260.317,295.600 260.000 C 296.040 259.683,296.400 259.233,296.400 259.000 C 296.400 258.767,296.760 258.317,297.200 258.000 C 297.640 257.683,298.000 257.143,298.000 256.800 C 298.000 256.457,298.360 255.917,298.800 255.600 C 299.240 255.283,299.600 254.703,299.600 254.312 C 299.600 253.920,299.780 253.600,300.000 253.600 C 300.220 253.600,300.400 253.280,300.400 252.888 C 300.400 252.497,300.760 251.917,301.200 251.600 C 301.640 251.283,302.000 250.703,302.000 250.312 C 302.000 249.920,302.180 249.600,302.400 249.600 C 302.620 249.600,302.800 249.240,302.800 248.800 C 302.800 248.360,302.980 248.000,303.200 248.000 C 303.420 248.000,303.600 247.640,303.600 247.200 C 303.600 246.760,303.780 246.400,304.000 246.400 C 304.220 246.400,304.400 246.040,304.400 245.600 C 304.400 245.160,304.580 244.800,304.800 244.800 C 305.020 244.800,305.200 244.440,305.200 244.000 C 305.200 243.560,305.380 243.200,305.600 243.200 C 305.820 243.200,306.000 242.840,306.000 242.400 C 306.000 241.960,306.180 241.600,306.400 241.600 C 306.620 241.600,306.800 241.150,306.800 240.600 C 306.800 240.050,306.980 239.600,307.200 239.600 C 307.420 239.600,307.600 239.240,307.600 238.800 C 307.600 238.360,307.774 238.000,307.986 238.000 C 308.199 238.000,308.492 237.100,308.638 236.000 C 308.784 234.900,309.060 234.000,309.252 234.000 C 309.443 234.000,309.600 233.460,309.600 232.800 C 309.600 232.140,309.780 231.600,310.000 231.600 C 310.220 231.600,310.400 230.880,310.400 230.000 C 310.400 229.120,310.580 228.400,310.800 228.400 C 311.020 228.400,311.200 227.680,311.200 226.800 C 311.200 225.920,311.380 225.200,311.600 225.200 C 311.820 225.200,312.000 224.570,312.000 223.800 C 312.000 223.030,312.180 222.400,312.400 222.400 C 312.620 222.400,312.800 221.680,312.800 220.800 C 312.800 219.920,312.980 219.200,313.200 219.200 C 313.422 219.200,313.600 218.133,313.600 216.800 C 313.600 215.467,313.778 214.400,314.000 214.400 C 314.261 214.400,314.400 208.000,314.400 196.000 C 314.400 184.000,314.261 177.600,314.000 177.600 C 313.780 177.600,313.600 177.420,313.600 177.200 C 313.600 176.971,314.800 176.800,316.400 176.800 C 318.000 176.800,319.200 176.629,319.200 176.400 C 319.200 176.178,320.267 176.000,321.600 176.000 C 322.920 176.000,324.000 175.835,324.000 175.634 C 324.000 175.433,325.350 175.142,327.000 174.987 C 328.650 174.833,330.000 174.547,330.000 174.353 C 330.000 174.159,330.360 174.000,330.800 174.000 C 331.240 174.000,331.600 173.820,331.600 173.600 C 331.600 173.380,332.140 173.200,332.800 173.200 C 333.460 173.200,334.000 173.020,334.000 172.800 C 334.000 172.580,334.360 172.400,334.800 172.400 C 335.240 172.400,335.600 172.220,335.600 172.000 C 335.600 171.780,335.960 171.600,336.400 171.600 C 336.840 171.600,337.200 171.420,337.200 171.200 C 337.200 170.980,337.560 170.800,338.000 170.800 C 338.440 170.800,338.800 170.620,338.800 170.400 C 338.800 170.180,339.120 170.000,339.512 170.000 C 339.903 170.000,340.483 169.640,340.800 169.200 C 341.117 168.760,341.567 168.400,341.800 168.400 C 342.033 168.400,342.483 168.040,342.800 167.600 C 343.117 167.160,343.657 166.800,344.000 166.800 C 344.343 166.800,344.883 166.440,345.200 166.000 C 345.517 165.560,346.057 165.200,346.400 165.200 C 346.743 165.200,347.283 164.840,347.600 164.400 C 347.917 163.960,348.410 163.600,348.696 163.600 C 348.981 163.600,350.374 162.475,351.791 161.100 C 353.208 159.725,355.095 157.920,355.984 157.089 C 356.873 156.257,357.600 155.390,357.600 155.160 C 357.600 154.931,357.825 154.492,358.100 154.185 C 359.323 152.821,359.600 152.401,359.600 151.905 C 359.600 151.614,359.960 151.117,360.400 150.800 C 360.840 150.483,361.200 149.943,361.200 149.600 C 361.200 149.257,361.560 148.717,362.000 148.400 C 362.440 148.083,362.800 147.503,362.800 147.112 C 362.800 146.720,362.980 146.400,363.200 146.400 C 363.420 146.400,363.600 146.040,363.600 145.600 C 363.600 145.160,363.780 144.800,364.000 144.800 C 364.220 144.800,364.400 144.440,364.400 144.000 C 364.400 143.560,364.580 143.200,364.800 143.200 C 365.020 143.200,365.200 142.840,365.200 142.400 C 365.200 141.960,365.380 141.600,365.600 141.600 C 365.820 141.600,366.000 141.330,366.000 141.000 C 366.000 140.670,366.180 140.400,366.400 140.400 C 366.620 140.400,366.800 140.040,366.800 139.600 C 366.800 139.160,366.980 138.800,367.200 138.800 C 367.420 138.800,367.600 138.440,367.600 138.000 C 367.600 137.560,367.780 137.200,368.000 137.200 C 368.220 137.200,368.400 136.480,368.400 135.600 C 368.400 134.720,368.580 134.000,368.800 134.000 C 369.020 134.000,369.200 133.280,369.200 132.400 C 369.200 131.520,369.380 130.800,369.600 130.800 C 369.820 130.800,370.000 130.080,370.000 129.200 C 370.000 128.320,370.180 127.600,370.400 127.600 C 370.658 127.600,370.800 123.067,370.800 114.800 C 370.800 106.533,370.658 102.000,370.400 102.000 C 370.180 102.000,370.000 101.280,370.000 100.400 C 370.000 99.520,369.820 98.800,369.600 98.800 C 369.380 98.800,369.200 98.080,369.200 97.200 C 369.200 96.320,369.020 95.600,368.800 95.600 C 368.580 95.600,368.400 94.880,368.400 94.000 C 368.400 93.120,368.220 92.400,368.000 92.400 C 367.780 92.400,367.600 92.130,367.600 91.800 C 367.600 91.470,367.420 91.200,367.200 91.200 C 366.980 91.200,366.800 90.840,366.800 90.400 C 366.800 89.960,366.620 89.600,366.400 89.600 C 366.180 89.600,366.000 89.240,366.000 88.800 C 366.000 88.360,365.820 88.000,365.600 88.000 C 365.380 88.000,365.200 87.640,365.200 87.200 C 365.200 86.760,365.020 86.400,364.800 86.400 C 364.580 86.400,364.400 86.040,364.400 85.600 C 364.400 85.160,364.220 84.800,364.000 84.800 C 363.780 84.800,363.600 84.440,363.600 84.000 C 363.600 83.560,363.420 83.200,363.200 83.200 C 362.980 83.200,362.800 82.880,362.800 82.488 C 362.800 82.097,362.440 81.517,362.000 81.200 C 361.560 80.883,361.200 80.343,361.200 80.000 C 361.200 79.657,360.840 79.117,360.400 78.800 C 359.960 78.483,359.600 77.985,359.600 77.694 C 359.600 77.403,359.150 76.680,358.600 76.087 C 358.050 75.493,357.600 74.869,357.600 74.699 C 357.600 74.168,349.237 66.000,348.693 66.000 C 348.409 66.000,347.917 65.640,347.600 65.200 C 347.283 64.760,346.743 64.400,346.400 64.400 C 346.057 64.400,345.517 64.040,345.200 63.600 C 344.883 63.160,344.343 62.800,344.000 62.800 C 343.657 62.800,343.117 62.440,342.800 62.000 C 342.483 61.560,342.015 61.200,341.761 61.200 C 341.506 61.200,341.066 60.921,340.784 60.580 C 340.186 59.860,337.131 58.400,336.222 58.400 C 335.880 58.400,335.600 58.220,335.600 58.000 C 335.600 57.780,335.240 57.600,334.800 57.600 C 334.360 57.600,334.000 57.420,334.000 57.200 C 334.000 56.980,333.460 56.800,332.800 56.800 C 332.140 56.800,331.600 56.620,331.600 56.400 C 331.600 56.180,331.240 56.000,330.800 56.000 C 330.360 56.000,330.000 55.820,330.000 55.600 C 330.000 55.380,329.280 55.200,328.400 55.200 C 327.520 55.200,326.800 55.020,326.800 54.800 C 326.800 54.580,326.170 54.400,325.400 54.400 C 324.630 54.400,324.000 54.220,324.000 54.000 C 324.000 53.780,323.021 53.600,321.824 53.600 C 320.627 53.600,319.536 53.420,319.400 53.200 C 319.238 52.938,306.196 52.800,281.576 52.800 C 256.792 52.800,244.000 52.936,244.000 53.200 M312.000 92.442 C 334.906 96.095,338.657 127.433,317.200 135.889 C 313.197 137.466,311.021 137.600,289.339 137.600 L 268.425 137.600 267.012 139.808 C 266.236 141.022,265.600 142.074,265.600 142.145 C 265.600 142.217,264.431 144.238,263.002 146.638 C 259.884 151.873,259.880 150.689,263.031 155.436 C 286.941 191.455,275.039 239.918,237.400 259.809 C 232.416 262.443,232.840 261.703,230.408 272.000 C 230.226 272.770,229.801 274.390,229.464 275.600 C 227.667 282.041,226.727 285.325,225.813 288.345 C 225.256 290.185,224.800 291.948,224.800 292.264 C 224.800 293.274,222.748 299.315,221.493 302.000 C 217.552 310.429,211.306 315.826,203.674 317.398 C 199.466 318.264,149.989 318.291,145.486 317.429 C 127.983 314.080,121.202 292.169,133.742 279.482 C 139.751 273.402,142.353 272.800,162.635 272.800 C 175.019 272.800,178.789 272.685,179.082 272.300 C 179.726 271.454,181.272 265.509,180.926 265.211 C 180.747 265.056,179.430 264.516,178.000 264.012 C 143.477 251.825,123.594 213.322,133.240 177.336 C 133.938 174.731,134.530 172.202,134.555 171.716 C 134.607 170.697,121.915 157.190,119.948 156.173 C 118.949 155.656,115.876 155.578,98.491 155.629 C 76.384 155.693,76.703 155.721,71.642 153.331 C 67.772 151.503,63.326 147.117,61.668 143.490 C 59.451 138.639,59.400 138.409,59.400 133.200 C 59.400 127.991,59.451 127.761,61.668 122.910 C 64.059 117.678,70.726 112.465,76.646 111.196 C 80.500 110.370,131.789 110.860,134.400 111.748 C 141.949 114.314,143.467 115.400,153.714 125.564 C 158.947 130.754,163.301 135.065,163.391 135.143 C 163.480 135.222,165.139 134.380,167.077 133.271 C 182.786 124.284,204.450 121.114,219.597 125.587 C 221.898 126.267,222.303 126.110,223.455 124.100 C 224.647 122.018,228.136 116.096,231.951 109.681 C 233.298 107.416,234.400 105.487,234.400 105.393 C 234.400 105.300,235.319 103.869,236.442 102.214 C 239.979 97.002,244.673 93.899,251.000 92.591 C 254.111 91.948,308.077 91.816,312.000 92.442 M198.200 167.402 C 172.374 173.196,166.145 206.431,188.193 220.796 C 199.095 227.899,214.506 226.454,223.941 217.444 C 245.059 197.277,226.434 161.068,198.200 167.402 " stroke="none" fill="#6b94fc" fill-rule="evenodd"></path></g></svg>