<svg width="398" height="360" viewBox="0 0 398 360" fill="none" xmlns="http://www.w3.org/2000/svg">
    <circle cx="16.8485" cy="81.8485" r="16.8485" fill="white"/>
    <path d="M94.6629 102.534L79.3939 82H12" stroke="white" stroke-width="21.0606"/>
    <circle cx="95.7045" cy="140.705" r="49.5917" fill="white" stroke="white" stroke-width="8.22561"/>
    <path d="M334.119 177.86C334.119 248.934 276.27 306.582 204.871 306.582C133.473 306.582 75.6231 248.934 75.6231 177.86C75.6231 106.786 133.473 49.1383 204.871 49.1383C276.27 49.1383 334.119 106.786 334.119 177.86Z" fill="white" stroke="white" stroke-width="8.9734"/>
    <circle cx="252.178" cy="53.178" r="49.0652" fill="white" stroke="white" stroke-width="8.22561"/>
    <path d="M279 31.7955L311.625 14H390.518" stroke="white" stroke-width="18.9818"/>
    <circle cx="384.163" cy="14.1629" r="13.1629" fill="white"/>
    <path d="M342 242.259L344.288 217H373" stroke="white" stroke-width="18.3704"/>
    <path d="M387.635 217.5C387.635 226.411 380.411 233.635 371.5 233.635C362.589 233.635 355.365 226.411 355.365 217.5C355.365 208.589 362.589 201.365 371.5 201.365C380.411 201.365 387.635 208.589 387.635 217.5Z" fill="white" stroke="white" stroke-width="6.73005"/>
    <circle cx="268.663" cy="239.663" r="77.4284" fill="white" stroke="white" stroke-width="10.469"/>
    <path d="M270.692 302L247.829 341.277H147" stroke="white" stroke-width="18.7589"/>
    <path d="M177.568 339.688C177.568 350.561 168.487 359.375 157.284 359.375C146.082 359.375 137 350.561 137 339.688C137 328.814 146.082 320 157.284 320C168.487 320 177.568 328.814 177.568 339.688Z" fill="#FDFDFD"/>
    <path d="M324.295 178.561C324.295 243.54 271.266 296.264 205.793 296.264C140.32 296.264 87.291 243.54 87.291 178.561C87.291 113.581 140.32 60.8574 205.793 60.8574C271.266 60.8574 324.295 113.581 324.295 178.561Z" fill="white" stroke="#5585FF" stroke-width="8.5215"/>
    <circle cx="95.2806" cy="139.681" r="41.8974" fill="white" stroke="#5585FF" stroke-width="7.81137"/>
    <path d="M78.7702 154.06C78.7702 154.06 70.5552 161.974 71.0829 172.085" stroke="#5585FF" stroke-width="7.10125" stroke-linecap="round" stroke-linejoin="round"/>
    <path d="M119.867 172.166C119.867 172.166 120.067 160.832 112.538 154.129" stroke="#5585FF" stroke-width="7.10125" stroke-linecap="round" stroke-linejoin="round"/>
    <path d="M109.837 137.284C109.837 144.808 103.515 151.043 95.5462 151.043C87.5771 151.043 81.2549 144.808 81.2549 137.284C81.2549 129.76 87.5771 123.525 95.5462 123.525C103.515 123.525 109.837 129.76 109.837 137.284Z" stroke="#5585FF" stroke-width="4.97087"/>
    <path d="M339.031 239.543C339.031 277.553 308.333 308.336 270.504 308.336C232.674 308.336 201.977 277.553 201.977 239.543C201.977 201.532 232.674 170.749 270.504 170.749C308.333 170.749 339.031 201.532 339.031 239.543Z" fill="white" stroke="#5585FF" stroke-width="9.94175"/>
    <path d="M223.902 293.6C230.349 277.922 234.408 272.362 243.075 272.828" stroke="#5585FF" stroke-width="10.6519"/>
    <path d="M315.929 290.593C313.111 271.42 302.459 273.362 302.459 273.362" stroke="#5585FF" stroke-width="10.6519"/>
    <line x1="242.855" y1="271.232" x2="302.505" y2="271.737" stroke="#5585FF" stroke-width="10.6519"/>
    <line x1="298.523" y1="274.452" x2="312.37" y2="276.582" stroke="#5585FF" stroke-width="4.26075"/>
    <path d="M278.12 207.899C252.226 207.03 249.442 211.529 250.174 235.181" stroke="#5585FF" stroke-width="10.6519"/>
    <path d="M276.895 207.125C289.525 210.516 291.897 215.084 294.471 224.168" stroke="#5585FF" stroke-width="10.6519"/>
    <path d="M294.737 223.639C296.364 237.252 285.851 256.176 273.433 261.986" stroke="#5585FF" stroke-width="10.6519"/>
    <path d="M249.733 233.95C255.709 255.417 261.916 261.434 274.765 261.644" stroke="#5585FF" stroke-width="10.6519"/>
    <path d="M249.828 230.013C260.113 221.498 272.73 224.154 272.73 224.154" stroke="#5585FF" stroke-width="10.6519"/>
    <path d="M275.501 222.453C282.301 223.89 283.928 235.438 293.076 238.963" stroke="#5585FF" stroke-width="10.6519"/>
    <path d="M279.366 223.727C269.971 220.635 266.563 223.933 266.563 223.933" stroke="#5585FF" stroke-width="10.6519"/>
    <path d="M284.538 232.323C279.515 228.103 275.16 226.773 265.205 225.879" stroke="#5585FF" stroke-width="4.26075"/>
    <ellipse cx="157.327" cy="340.468" rx="12.516" ry="12.2497" fill="#5585FF"/>
    <path d="M267 308.5L247.5 342H161.5" stroke="#5585FF" stroke-width="8"/>
    <circle cx="384.479" cy="14.5215" r="8.5215" fill="#5585FF"/>
    <path d="M286 28.5L313.5 13.5H380" stroke="#5585FF" stroke-width="8"/>
    <circle cx="16.5215" cy="81.5215" r="8.5215" fill="#5585FF"/>
    <path d="M92 98L80 82H18.5" stroke="#5585FF" stroke-width="8"/>
    <path d="M381.283 217.707C381.283 223.148 376.872 227.56 371.43 227.56C365.988 227.56 361.577 223.148 361.577 217.707C361.577 212.265 365.988 207.854 371.43 207.854C376.872 207.854 381.283 212.265 381.283 217.707Z" fill="white" stroke="#5585FF" stroke-width="6.39112"/>
    <path d="M339.208 234.482L339.701 217.439H362.11" stroke="#5585FF" stroke-width="8.5215"/>
    <circle cx="252.396" cy="53.4007" r="41.8974" fill="white" stroke="#5585FF" stroke-width="7.81137"/>
    <circle r="13.9362" transform="matrix(-1 0 0 1 251.596 38.7542)" stroke="#5585FF" stroke-width="5.681"/>
    <path d="M274.765 89.6248C276.096 72.8481 278.28 55.1127 252.928 55.5388" stroke="#5585FF" stroke-width="4.26075"/>
    <circle cx="251.513" cy="38.7542" r="13.9362" stroke="#5585FF" stroke-width="5.681"/>
    <path d="M228.611 88.8181C227.28 72.0414 225.096 54.3061 250.448 54.7321" stroke="#5585FF" stroke-width="4.26075"/>
    <path d="M260.385 56.5969C244.981 56.9901 242.393 55.148 238.016 56.5969" stroke="#5585FF" stroke-width="2.8405"/>
</svg>
